<svg xmlns="http://www.w3.org/2000/svg" aria-hidden="true" style="position:absolute;width:0;height:0;overflow:hidden">
  <defs>
    <symbol id="icon-click" viewBox="0 0 32 32">
      <path d="M29.767 5.156a1.487 1.487 0 0 0-2.133 0L9.559 23.581l-6.948-7.082c-.589-.601-1.544-.601-2.134 0s-.589 1.574 0 2.175l8.014 8.17c.589.6 1.545.6 2.134 0L29.767 7.331a1.56 1.56 0 0 0 0-2.175z"/>
    </symbol>
    <symbol id="icon-watch" viewBox="0 0 32 32">
      <path d="M27.866 12.891c2.441 1.354 2.441 4.864 0 6.218L6.711 30.848c-2.37 1.315-5.281-.399-5.281-3.109V4.262c0-2.71 2.911-4.424 5.281-3.109l21.155 11.739z"/>
    </symbol>
    <symbol id="icon-mouse" viewBox="0 0 32 32">
      <path d="M24.689 18.067 7.479.857a1.003 1.003 0 0 0-.756-.319c-.134 0-.286.034-.403.084a1.079 1.079 0 0 0-.672.992v25.277c0 .437.269.824.672.992.118.05.269.084.403.084.286 0 .555-.118.756-.319l5.244-5.244 3.21 7.597a1.08 1.08 0 0 0 1.412.571l2.975-1.261a1.08 1.08 0 0 0 .571-1.412l-3.378-8h6.42c.437 0 .824-.269.992-.672a1.038 1.038 0 0 0-.235-1.16z"/>
    </symbol>
    <symbol id="icon-wave" viewBox="0 0 32 32">
      <path d="m16.857 13.587 2.079.968 3.095-.921v-2.159c0-3.667-3.095-6.603-6.794-6.603-3.683 0-6.794 2.921-6.794 6.556v9.841c0 .905-.73 1.619-1.619 1.619s-1.619-.714-1.619-1.619V17.11H-.001v4.222a6.809 6.809 0 0 0 6.81 6.81c3.73 0 6.809-3 6.809-6.714v-9.714c0-.889.73-1.619 1.619-1.619s1.619.73 1.619 1.619v1.873zm8.413 3.524v4.365c0 .889-.73 1.603-1.619 1.603s-1.619-.714-1.619-1.603V17.19l-3.095.921-2.079-.968v4.254c0 3.73 3.064 6.746 6.81 6.746a6.809 6.809 0 0 0 6.81-6.81v-4.222h-5.206z"/>
    </symbol>
    <symbol id="icon-hart" viewBox="0 0 32 32">
      <path d="M16 29.286c.286 0 .571-.107.786-.322L27.911 18.25C28.072 18.089 32 14.5 32 10.214c0-5.232-3.196-8.357-8.536-8.357-3.125 0-6.053 2.464-7.464 3.857-1.411-1.393-4.339-3.857-7.464-3.857C3.197 1.857 0 4.982 0 10.214c0 4.286 3.929 7.875 4.071 8l11.143 10.75c.214.214.5.322.786.322z"/>
    </symbol>
    <symbol id="icon-clock" viewBox="0 0 32 32">
      <path d="M26.487 2.689h1.614a.531.531 0 0 0 .538-.538V1.075a.53.53 0 0 0-.538-.538H3.361a.53.53 0 0 0-.538.538v1.076a.53.53 0 0 0 .538.538h1.613c0 6.219 2.975 10.723 6.269 12.908-3.294 2.185-6.269 6.689-6.269 12.908H3.361a.53.53 0 0 0-.538.538v1.076c0 .302.235.538.538.538h24.74a.531.531 0 0 0 .538-.538v-1.076a.531.531 0 0 0-.538-.538h-1.614c0-6.219-2.975-10.723-6.269-12.908 3.294-2.185 6.269-6.689 6.269-12.908zm-2.151 0c0 2.454-.555 4.622-1.429 6.454H8.554c-.874-1.832-1.429-4-1.429-6.454h17.21zm-.958 20.437H8.084c1.244-3.244 3.479-5.546 5.714-6.454h3.866c2.235.908 4.471 3.21 5.714 6.454z"/>
    </symbol>
    <symbol id="icon-twitter" viewBox="0 0 32 32">
      <path stroke-linecap="round" stroke-linejoin="round" stroke-width="2.667" d="M30.667 4.013a14.542 14.542 0 0 1-4.187 2.04 5.975 5.975 0 0 0-6.637-1.661A5.979 5.979 0 0 0 16 10.053v1.333a14.211 14.211 0 0 1-12-6.04s-5.333 12 6.667 17.333a15.519 15.519 0 0 1-9.333 2.667c12 6.667 26.667 0 26.667-15.333a5.966 5.966 0 0 0-.107-1.107 10.288 10.288 0 0 0 2.773-4.893z"/>
    </symbol>
    <symbol id="icon-facebook" viewBox="0 0 32 32">
      <path stroke-linecap="round" stroke-linejoin="round" stroke-width="2.667" d="M24 2.667h-4a6.67 6.67 0 0 0-6.667 6.667v4h-4v5.333h4v10.667h5.333V18.667h4l1.333-5.333h-5.333v-4A1.334 1.334 0 0 1 20 8h4V2.667z"/>
    </symbol>
    <symbol id="icon-instagram" viewBox="0 0 32 32">
      <path stroke-linecap="round" stroke-linejoin="round" stroke-width="2.667" d="M22.667 2.667H9.334a6.667 6.667 0 0 0-6.667 6.667v13.333a6.667 6.667 0 0 0 6.667 6.667h13.333a6.667 6.667 0 0 0 6.667-6.667V9.334a6.667 6.667 0 0 0-6.667-6.667z"/>
      <path stroke-linecap="round" stroke-linejoin="round" stroke-width="2.667" d="M21.333 15.16a5.338 5.338 0 0 1-6.123 6.049 5.334 5.334 0 1 1 6.124-6.048zM23.333 8.667h.013"/>
    </symbol>
    <symbol id="icon-mobile" viewBox="0 0 32 32">
      <path d="M22.649 2.286H9.35c-1.377 0-2.494 1.152-2.494 2.571v22.286c0 1.42 1.117 2.571 2.494 2.571h13.299c1.377 0 2.494-1.152 2.494-2.571V4.857c0-1.42-1.117-2.571-2.494-2.571zm-4.155 23.952c0 .52-.374.905-.831.905h-3.371c-.41 0-.784-.386-.784-.857s.374-.857.831-.857h3.325c.457 0 .831.386.831.809zm3.324-3.381H10.182V5.714h11.636v17.143z"/>
    </symbol>
    <symbol id="icon-univer" viewBox="0 0 32 32">
      <path fill="#d6b1ff" d="M6.667 1.333h-4a1.335 1.335 0 0 0-1.334 1.334v26.667a1.335 1.335 0 0 0 1.334 1.334h4V1.335z" style="fill:var(--color1, #d6b1ff)"/>
      <path fill="#f03e3d" d="M9.333 30.667h13.333V1.334H9.333v29.333zM16 25.333a1.334 1.334 0 1 1 0-2.667 1.334 1.334 0 0 1 0 2.667zm0-18.666a1.335 1.335 0 0 1 .943 2.277A1.334 1.334 0 1 1 16 6.667zm0 8a1.334 1.334 0 1 1 0 2.667 1.334 1.334 0 0 1 0-2.667zM29.333 1.333h-4v29.333h4a1.334 1.334 0 0 0 1.334-1.334V2.665a1.334 1.334 0 0 0-1.334-1.334z" style="fill:var(--color2, #f03e3d)"/>
    </symbol>
    <symbol id="icon-account" viewBox="0 0 32 32">
      <path fill="#d6b1ff" d="M28 32H16a1.334 1.334 0 0 1-1.334-1.334v-2.667A1.334 1.334 0 0 1 16 26.665h12a1.334 1.334 0 0 1 1.334 1.334v2.667A1.334 1.334 0 0 1 28 32z" style="fill:var(--color1, #d6b1ff)"/>
      <path fill="#11b5e4" d="M28 0H4a1.335 1.335 0 0 0-1.334 1.334v2.667A1.335 1.335 0 0 0 4 5.335h24a1.335 1.335 0 0 0 1.334-1.334V1.334A1.334 1.334 0 0 0 28 0zM28 8H4a1.335 1.335 0 0 0-1.334 1.334v13.333A1.335 1.335 0 0 0 4 24.001h24a1.334 1.334 0 0 0 1.334-1.334V9.334A1.334 1.334 0 0 0 28 8z" style="fill:var(--color3, #11b5e4)"/>
    </symbol>
    <symbol id="icon-enter" viewBox="0 0 32 32">
      <path fill="#d6b1ff" d="M24 13.333h8L28 8l-4 5.333zm0 5.334h8L28 24l-4-5.333z" style="fill:var(--color1, #d6b1ff)"/>
      <path fill="#02897a" d="M1.333 0h8v32h-8a1.334 1.334 0 0 1-1.334-1.334V1.333A1.335 1.335 0 0 1 1.333-.001zM12 0h8a1.335 1.335 0 0 1 1.334 1.334v29.333A1.334 1.334 0 0 1 20 32.001h-8v-32z" style="fill:var(--color4, #02897a)"/>
    </symbol>
    <symbol id="icon-tick" viewBox="0 0 45 32">
      <path d="M42.17.638a2.108 2.108 0 0 0-3.022 0L13.542 26.74 3.699 16.707c-.835-.851-2.188-.851-3.023 0s-.835 2.23 0 3.081L12.03 31.362a2.11 2.11 0 0 0 3.023 0L42.17 3.719a2.208 2.208 0 0 0 0-3.081z"/>
    </symbol>
    <symbol id="icon-frame" viewBox="0 0 32 32">
<path fill="#02897a" style="fill: var(--color1, #02897a)" d="M16 29.333c7.352 0 13.333-5.981 13.333-13.333s-5.981-13.333-13.333-13.333c-7.352 0-13.333 5.981-13.333 13.333s5.981 13.333 13.333 13.333zM16 5.333c5.881 0 10.667 4.785 10.667 10.667s-4.785 10.667-10.667 10.667c-5.881 0-10.667-4.785-10.667-10.667s4.785-10.667 10.667-10.667z"></path>
<path fill="#02897a" style="fill: var(--color1, #02897a)" d="M25.333 16c0-5.155-4.18-9.333-9.333-9.333v18.667c5.153 0 9.333-4.179 9.333-9.333z"></path>
</symbol>
<symbol id="icon-circle_right" viewBox="0 0 34 32">
<path d="M18.672 17.6h-9.872v-3.2h9.872l-4.128-4.144 2.256-2.256 8 8-8 8-2.256-2.256 4.128-4.144z"></path>
<path d="M0.8 16c0 8.836 7.163 16 16 16s16-7.164 16-16c0-8.837-7.164-16-16-16s-16 7.163-16 16zM4 16c0-7.069 5.731-12.8 12.8-12.8s12.8 5.731 12.8 12.8c0 7.069-5.731 12.8-12.8 12.8s-12.8-5.731-12.8-12.8z"></path>
</symbol>
<symbol id="icon-minus" viewBox="0 0 32 32">
<path fill="#02897a" style="fill: var(--color1, #02897a)" d="M0 16c0-8.832 7.168-16 16-16s16 7.168 16 16c0 8.832-7.168 16-16 16s-16-7.168-16-16zM8 17.6h16v-3.2h-16v3.2z"></path>
</symbol>
<symbol id="icon-plus" viewBox="0 0 32 32">
<path fill="#02897a" style="fill: var(--color1, #02897a)" d="M0 16c0-8.832 7.168-16 16-16s16 7.168 16 16c0 8.832-7.168 16-16 16s-16-7.168-16-16zM17.6 17.6h6.4v-3.2h-6.4v-6.4h-3.2v6.4h-6.4v3.2h6.4v6.4h3.2v-6.4z"></path>
</symbol>
<symbol id="icon-menu" viewBox="0 0 32 32">
<path d="M4.799 8.001c0-0.424 0.169-0.831 0.469-1.131s0.707-0.469 1.131-0.469h19.2c0.424 0 0.831 0.169 1.131 0.469s0.469 0.707 0.469 1.131-0.169 0.831-0.469 1.131c-0.3 0.3-0.707 0.469-1.131 0.469h-19.2c-0.424 0-0.831-0.169-1.131-0.469s-0.469-0.707-0.469-1.131z"></path>
<path d="M4.799 16.001c0-0.424 0.169-0.831 0.469-1.131s0.707-0.469 1.131-0.469h19.2c0.424 0 0.831 0.169 1.131 0.469s0.469 0.707 0.469 1.131c0 0.424-0.169 0.831-0.469 1.131s-0.707 0.469-1.131 0.469h-19.2c-0.424 0-0.831-0.169-1.131-0.469s-0.469-0.707-0.469-1.131z"></path>
<path d="M4.799 24.001c0-0.424 0.169-0.831 0.469-1.131s0.707-0.469 1.131-0.469h19.2c0.424 0 0.831 0.169 1.131 0.469s0.469 0.707 0.469 1.131c0 0.424-0.169 0.831-0.469 1.131s-0.707 0.469-1.131 0.469h-19.2c-0.424 0-0.831-0.169-1.131-0.469s-0.469-0.707-0.469-1.131z"></path>
</symbol>
<symbol id="icon-close" viewBox="0 0 32 32">
<path d="M32 3.223 28.777 0 16 12.777 3.223 0 0 3.223 12.777 16 0 28.777 3.223 32 16 19.223 28.777 32 32 28.777 19.223 16 32 3.223z"/>
</symbol>
<symbol id="icon-airbnb" viewBox="0 0 102 32">
<path fill="#ff385c" style="fill: var(--color1, #ff385c)" d="M29.171 22.679c-0.16-0.39-0.309-0.8-0.469-1.15l-0.738-1.67-0.030-0.030c-2.195-4.8-4.539-9.68-7.023-14.48l-0.1-0.2c-0.249-0.47-0.499-0.99-0.758-1.47-0.319-0.57-0.629-1.18-1.137-1.76-0.496-0.607-1.12-1.096-1.827-1.432s-1.48-0.51-2.263-0.51c-0.783 0-1.556 0.174-2.263 0.51s-1.332 0.825-1.827 1.432c-0.469 0.58-0.818 1.19-1.137 1.76-0.249 0.52-0.499 1.030-0.758 1.5l-0.1 0.2c-2.444 4.8-4.829 9.68-7.023 14.48l-0.060 0.060c-0.219 0.52-0.479 1.060-0.728 1.64-0.16 0.35-0.319 0.73-0.479 1.15-0.431 1.1-0.569 2.293-0.399 3.463s0.64 2.274 1.365 3.206 1.68 1.658 2.77 2.107c1.090 0.449 2.279 0.606 3.448 0.455 1.121-0.148 2.2-0.522 3.172-1.1 1.297-0.73 2.544-1.79 3.941-3.32 1.397 1.53 2.674 2.59 3.941 3.33 1.218 0.717 2.598 1.113 4.011 1.15 1.635 0.007 3.218-0.58 4.456-1.651s2.047-2.556 2.278-4.179c0.267-1.166 0.177-2.386-0.259-3.5v0.010zM14.845 24.339c-1.716-2.2-2.833-4.22-3.212-5.95-0.157-0.641-0.191-1.306-0.1-1.96 0.070-0.51 0.259-0.96 0.519-1.34 0.599-0.87 1.646-1.41 2.793-1.41 0.545-0.017 1.085 0.102 1.573 0.347s0.907 0.606 1.221 1.053c0.259 0.4 0.449 0.84 0.509 1.35 0.1 0.58 0.060 1.25-0.1 1.96-0.379 1.7-1.497 3.74-3.202 5.95zM27.555 25.819c-0.113 0.824-0.44 1.604-0.948 2.262s-1.178 1.171-1.945 1.488c-0.758 0.32-1.596 0.41-2.414 0.32-0.798-0.1-1.596-0.36-2.414-0.84-1.358-0.842-2.58-1.887-3.622-3.1 2.095-2.6 3.362-4.97 3.841-7.080 0.229-1 0.259-1.9 0.16-2.73-0.125-0.787-0.417-1.537-0.858-2.2-0.503-0.719-1.175-1.303-1.956-1.7s-1.648-0.597-2.523-0.58c-1.846 0-3.492 0.86-4.489 2.27-0.449 0.661-0.739 1.418-0.848 2.21-0.13 0.84-0.1 1.77 0.16 2.73 0.479 2.11 1.776 4.51 3.841 7.1-1.024 1.236-2.248 2.291-3.621 3.12-0.828 0.48-1.616 0.73-2.414 0.83-1.241 0.159-2.495-0.179-3.489-0.941s-1.647-1.887-1.819-3.129c-0.1-0.8-0.030-1.6 0.289-2.5 0.1-0.32 0.249-0.64 0.409-1.020 0.219-0.52 0.479-1.060 0.728-1.6l0.040-0.070c2.155-4.77 4.509-9.64 6.954-14.41l0.1-0.2c0.249-0.48 0.499-0.99 0.758-1.47 0.259-0.51 0.539-1 0.898-1.4 0.311-0.372 0.699-0.671 1.138-0.876s0.917-0.312 1.401-0.312c0.484 0 0.962 0.106 1.401 0.312s0.827 0.504 1.138 0.876c0.349 0.4 0.638 0.89 0.898 1.4 0.249 0.48 0.499 1 0.758 1.47l0.1 0.2c2.434 4.77 4.789 9.64 6.984 14.41l0.030 0.030c0.259 0.52 0.479 1.1 0.728 1.6 0.16 0.39 0.319 0.7 0.419 1.030 0.19 0.9 0.289 1.7 0.19 2.5zM41.442 24.119c-0.752 0.011-1.496-0.148-2.179-0.465s-1.284-0.784-1.762-1.365c-1.073-1.24-1.643-2.839-1.596-4.48-0.016-1.677 0.572-3.303 1.656-4.58 0.502-0.589 1.126-1.061 1.829-1.383s1.468-0.484 2.241-0.477c0.727-0.020 1.448 0.146 2.093 0.482s1.196 0.831 1.598 1.438l0.1-1.57h2.913v12.080h-2.923l-0.1-1.76c-0.415 0.649-0.988 1.18-1.666 1.544s-1.437 0.548-2.205 0.536zM42.2 21.239c0.579 0 1.087-0.16 1.566-0.45 0.439-0.32 0.798-0.74 1.078-1.25 0.249-0.51 0.379-1.12 0.379-1.8 0.039-0.591-0.076-1.181-0.333-1.714s-0.648-0.99-1.134-1.326c-0.467-0.292-1.006-0.446-1.556-0.446s-1.089 0.155-1.556 0.446c-0.439 0.32-0.798 0.74-1.077 1.25-0.264 0.562-0.394 1.179-0.379 1.8-0.039 0.591 0.076 1.181 0.333 1.714s0.648 0.99 1.134 1.326c0.469 0.29 0.978 0.45 1.546 0.45zM53.324 8.459c0 0.35-0.060 0.67-0.22 0.93-0.16 0.25-0.379 0.48-0.668 0.64s-0.599 0.22-0.918 0.22-0.639-0.060-0.928-0.22c-0.274-0.153-0.504-0.373-0.668-0.64-0.154-0.285-0.23-0.606-0.22-0.93 0-0.36 0.070-0.68 0.22-0.93 0.16-0.3 0.389-0.48 0.668-0.64 0.289-0.16 0.599-0.23 0.928-0.23 0.318-0.007 0.632 0.068 0.911 0.219s0.516 0.372 0.685 0.641c0.145 0.292 0.217 0.614 0.21 0.94zM49.932 23.759v-12.060h3.172v12.080h-3.182l0.010-0.020zM61.585 14.859v0.040c-0.15-0.070-0.349-0.1-0.499-0.13-0.2-0.040-0.359-0.040-0.549-0.040-0.888 0-1.556 0.26-1.995 0.8-0.479 0.55-0.698 1.32-0.698 2.31v5.93h-3.182v-12.080h2.923l0.1 1.83c0.319-0.64 0.698-1.12 1.237-1.48 0.536-0.35 1.167-0.524 1.806-0.5 0.23 0 0.449 0.020 0.639 0.060 0.1 0.030 0.16 0.030 0.219 0.060v3.2zM62.862 23.759v-17.020h3.173v6.5c0.449-0.58 0.957-1.030 1.596-1.38 1.011-0.497 2.159-0.638 3.26-0.4s2.089 0.84 2.806 1.71c1.076 1.243 1.646 2.846 1.596 4.49 0.017 1.677-0.572 3.303-1.656 4.58-0.502 0.589-1.126 1.061-1.829 1.383s-1.469 0.484-2.241 0.477c-0.727 0.020-1.448-0.146-2.093-0.482s-1.196-0.831-1.598-1.438l-0.1 1.57-2.913 0.030v-0.020zM68.997 21.239c0.569 0 1.078-0.16 1.556-0.45 0.439-0.32 0.798-0.74 1.078-1.25 0.259-0.51 0.379-1.12 0.379-1.8 0-0.67-0.12-1.28-0.379-1.79-0.262-0.492-0.63-0.919-1.078-1.25-0.467-0.292-1.006-0.446-1.556-0.446s-1.089 0.155-1.556 0.446c-0.449 0.32-0.799 0.74-1.088 1.25-0.264 0.562-0.394 1.179-0.379 1.8-0.039 0.591 0.076 1.181 0.333 1.714s0.648 0.99 1.134 1.326c0.468 0.29 0.977 0.45 1.556 0.45zM76.49 23.769v-12.080h2.923l0.1 1.57c0.367-0.602 0.888-1.094 1.51-1.427s1.319-0.492 2.022-0.463c0.804-0.014 1.594 0.21 2.272 0.644s1.213 1.059 1.539 1.796c0.349 0.76 0.539 1.7 0.539 2.75v7.24h-3.183v-6.82c0-0.84-0.189-1.5-0.568-1.99-0.38-0.48-0.898-0.74-1.556-0.74-0.479 0-0.898 0.1-1.267 0.32-0.349 0.23-0.638 0.52-0.858 0.93-0.222 0.414-0.332 0.88-0.319 1.35v6.92h-3.153zM88.98 23.769v-17.040h3.182v6.5c0.431-0.583 0.992-1.058 1.638-1.386s1.359-0.501 2.084-0.504c0.751-0.011 1.496 0.148 2.179 0.465s1.284 0.784 1.762 1.365c1.068 1.242 1.634 2.841 1.586 4.48 0.018 1.677-0.571 3.304-1.656 4.58-0.502 0.589-1.126 1.061-1.829 1.383s-1.469 0.484-2.241 0.477c-0.727 0.020-1.448-0.146-2.093-0.482s-1.196-0.831-1.598-1.438l-0.090 1.57-2.923 0.030zM95.146 21.239c0.579 0 1.087-0.16 1.556-0.45 0.449-0.32 0.798-0.74 1.087-1.25 0.25-0.51 0.379-1.12 0.379-1.8 0.039-0.591-0.076-1.181-0.333-1.714s-0.648-0.99-1.133-1.326c-0.467-0.292-1.006-0.446-1.556-0.446s-1.089 0.155-1.556 0.446c-0.439 0.32-0.798 0.74-1.077 1.25-0.278 0.557-0.409 1.177-0.38 1.8-0.038 0.591 0.076 1.181 0.333 1.714s0.648 0.99 1.134 1.326c0.469 0.29 0.948 0.45 1.546 0.45z"></path>
</symbol>
<symbol id="icon-fed-ex" viewBox="0 0 107 32">
<path fill="#f60" style="fill: var(--color2, #f60)" d="M79.321 31.042l8.896-9.852-8.896-9.854h9.386l4.406 4.786 4.242-4.786h9.058l-8.853 9.813 8.975 9.893h-9.425l-4.366-4.826-4.325 4.826h-9.099z"></path>
<path fill="#f60" style="fill: var(--color2, #f60)" d="M79.321 6.919h-10.075v4.417h10.075v6.657h-10.075v6.111h10.075v6.938h-17.48v-31.042h17.48v6.919z"></path>
<path fill="#652c8f" style="fill: var(--color3, #652c8f)" d="M54.468 0v12.704h-0.081c-1.633-1.85-3.672-2.492-6.039-2.492-4.848 0-8.499 3.248-9.781 7.543-1.462-4.732-5.232-7.632-10.822-7.632-4.54 0-8.125 2.009-9.996 5.282v-4.068h-9.384v-4.417h10.241v-6.92h-18.605v31.043h8.365v-13.049h8.338c-0.249 0.959-0.381 1.985-0.381 3.068 0 6.475 5.018 11.019 11.423 11.019 5.386 0 8.935-2.492 10.812-7.036h-7.168c-0.97 1.365-1.705 1.77-3.644 1.77-2.248 0-4.186-1.933-4.186-4.225h14.597c0.633 5.143 4.698 9.579 10.275 9.579 2.406 0 4.609-1.167 5.956-3.136h0.081v2.010h7.374v-31.042h-7.374zM23.791 18.086c0.465-1.972 2.016-3.26 3.953-3.26 2.132 0 3.604 1.249 3.992 3.26 0.163 0-7.945 0-7.945 0zM49.993 26.316c-2.718 0-4.407-2.496-4.407-5.103 0-2.786 1.469-5.466 4.407-5.466 3.046 0 4.26 2.679 4.26 5.466-0 2.642-1.286 5.103-4.26 5.103z"></path>
</symbol>
<symbol id="icon-google" viewBox="0 0 93 32">
<path fill="#ea4335" style="fill: var(--color4, #ea4335)" d="M39.763 16.41c0 4.442-3.432 7.715-7.644 7.715s-7.644-3.273-7.644-7.715c0-4.473 3.432-7.715 7.644-7.715s7.644 3.242 7.644 7.715zM36.417 16.41c0-2.776-1.989-4.675-4.298-4.675s-4.298 1.899-4.298 4.675c0 2.748 1.989 4.675 4.298 4.675s4.298-1.93 4.298-4.675z"></path>
<path fill="#fbbc05" style="fill: var(--color5, #fbbc05)" d="M56.253 16.41c0 4.442-3.432 7.715-7.644 7.715s-7.644-3.273-7.644-7.715c0-4.47 3.432-7.715 7.644-7.715s7.644 3.242 7.644 7.715zM52.907 16.41c0-2.776-1.989-4.675-4.298-4.675s-4.298 1.899-4.298 4.675c0 2.748 1.989 4.675 4.298 4.675s4.298-1.93 4.298-4.675z"></path>
<path fill="#4285f4" style="fill: var(--color6, #4285f4)" d="M72.055 9.162v13.85c0 5.697-3.318 8.024-7.242 8.024-3.693 0-5.915-2.501-6.754-4.546l2.913-1.228c0.519 1.256 1.79 2.737 3.837 2.737 2.511 0 4.067-1.569 4.067-4.522v-1.11h-0.116c-0.749 0.936-2.192 1.753-4.013 1.753-3.81 0-7.3-3.36-7.3-7.683 0-4.355 3.49-7.743 7.3-7.743 1.818 0 3.26 0.817 4.013 1.725h0.116v-1.256h3.178v-0.004zM69.114 16.438c0-2.717-1.789-4.703-4.067-4.703-2.308 0-4.242 1.986-4.242 4.703 0 2.689 1.934 4.647 4.242 4.647 2.278 0 4.067-1.958 4.067-4.647z"></path>
<path fill="#34a853" style="fill: var(--color7, #34a853)" d="M77.294 1.043v22.609h-3.263v-22.609h3.263z"></path>
<path fill="#ea4335" style="fill: var(--color4, #ea4335)" d="M90.012 18.95l2.597 1.753c-0.838 1.256-2.858 3.419-6.348 3.419-4.329 0-7.561-3.388-7.561-7.715 0-4.588 3.26-7.715 7.187-7.715 3.954 0 5.888 3.186 6.52 4.908l0.348 0.876-10.186 4.271c0.78 1.548 1.992 2.337 3.693 2.337 1.704 0 2.886-0.849 3.751-2.136zM82.018 16.174l6.808-2.863c-0.374-0.964-1.501-1.635-2.827-1.635-1.7 0-4.068 1.52-3.981 4.497z"></path>
<path fill="#4285f4" style="fill: var(--color6, #4285f4)" d="M12.123 14.403v-3.273h10.893c0.107 0.57 0.161 1.245 0.161 1.976 0 2.456-0.663 5.492-2.8 7.656-2.078 2.191-4.734 3.36-8.252 3.36-6.52 0-12.003-5.377-12.003-11.979s5.483-11.979 12.003-11.979c3.607 0 6.177 1.433 8.107 3.301l-2.281 2.31c-1.384-1.315-3.26-2.337-5.83-2.337-4.761 0-8.485 3.885-8.485 8.706s3.724 8.706 8.485 8.706c3.088 0 4.847-1.256 5.974-2.397 0.914-0.925 1.515-2.247 1.752-4.052l-7.726 0.003z"></path>
</symbol>
<symbol id="icon-microsoft" viewBox="0 0 155 32">
<path fill="#737373" style="fill: var(--color8, #737373)" d="M54.68 18.431l-0.923 2.53h-0.077c-0.154-0.571-0.436-1.439-0.898-2.481l-4.95-12.031h-4.847v19.175h3.206v-11.833c0-0.744 0-1.588-0.026-2.629-0.026-0.521-0.077-0.918-0.103-1.216h0.077c0.154 0.744 0.333 1.29 0.462 1.637l5.95 13.991h2.257l5.899-14.115c0.128-0.322 0.257-0.967 0.385-1.513h0.077c-0.077 1.414-0.128 2.679-0.154 3.448v12.155h3.411v-19.15h-4.668l-5.078 12.031zM67.657 11.808h3.334v13.743h-3.334v-13.743zM69.35 6.003c-0.564 0-1.026 0.198-1.411 0.546s-0.59 0.794-0.59 1.34c0 0.521 0.205 0.967 0.59 1.315s0.846 0.521 1.411 0.521 1.052-0.198 1.411-0.521c0.385-0.347 0.59-0.794 0.59-1.315s-0.205-0.967-0.59-1.34c-0.333-0.347-0.821-0.546-1.411-0.546zM82.815 11.684c-0.615-0.124-1.257-0.198-1.872-0.198-1.513 0-2.898 0.322-4.052 0.967s-2.077 1.538-2.667 2.654c-0.616 1.141-0.924 2.456-0.924 3.969 0 1.315 0.308 2.481 0.897 3.547 0.59 1.042 1.411 1.885 2.513 2.456 1.052 0.571 2.283 0.868 3.668 0.868 1.591 0 2.95-0.322 4.027-0.918l0.025-0.025v-2.977l-0.128 0.099c-0.487 0.347-1.052 0.645-1.616 0.819-0.59 0.198-1.129 0.298-1.59 0.298-1.334 0-2.385-0.372-3.129-1.191-0.769-0.794-1.154-1.885-1.154-3.25 0-1.414 0.385-2.53 1.18-3.349s1.847-1.24 3.129-1.24c1.077 0 2.18 0.347 3.18 1.042l0.128 0.099v-3.15l-0.025-0.025c-0.436-0.174-0.924-0.372-1.591-0.496zM93.817 11.584c-0.82 0-1.59 0.248-2.257 0.769-0.564 0.447-0.949 1.091-1.283 1.86h-0.025v-2.406h-3.334v13.743h3.334v-7.020c0-1.191 0.257-2.183 0.821-2.902 0.564-0.744 1.282-1.116 2.154-1.116 0.308 0 0.615 0.074 1 0.124 0.359 0.099 0.616 0.198 0.795 0.322l0.129 0.099v-3.225l-0.077-0.025c-0.231-0.149-0.692-0.223-1.257-0.223zM102.897 11.51c-2.334 0-4.207 0.67-5.514 1.985-1.334 1.315-1.975 3.126-1.975 5.408 0 2.133 0.667 3.87 1.95 5.135 1.282 1.24 3.026 1.885 5.206 1.885 2.283 0 4.104-0.67 5.412-2.009 1.334-1.34 1.975-3.126 1.975-5.333 0-2.183-0.616-3.919-1.873-5.184-1.205-1.265-2.975-1.885-5.18-1.885zM105.564 22.077c-0.615 0.769-1.59 1.141-2.796 1.141s-2.18-0.372-2.872-1.191c-0.692-0.769-1.026-1.885-1.026-3.299 0-1.464 0.359-2.58 1.026-3.374 0.692-0.794 1.641-1.191 2.847-1.191 1.18 0 2.103 0.372 2.77 1.141s1.025 1.885 1.025 3.349c-0.051 1.488-0.333 2.654-0.975 3.423zM117.387 17.513c-1.051-0.422-1.718-0.744-2.025-1.017-0.257-0.248-0.385-0.595-0.385-1.042 0-0.372 0.153-0.744 0.538-0.992s0.821-0.372 1.462-0.372c0.564 0 1.154 0.099 1.719 0.248s1.077 0.372 1.487 0.67l0.129 0.099v-3.026l-0.077-0.025c-0.385-0.149-0.897-0.298-1.513-0.422-0.615-0.099-1.18-0.149-1.641-0.149-1.59 0-2.898 0.372-3.924 1.191-1.026 0.769-1.513 1.811-1.513 3.026 0 0.645 0.103 1.215 0.334 1.687s0.564 0.918 1.025 1.29c0.462 0.347 1.129 0.744 2.052 1.116 0.769 0.322 1.359 0.571 1.719 0.769s0.59 0.422 0.769 0.595c0.128 0.198 0.205 0.447 0.205 0.769 0 0.918-0.718 1.364-2.18 1.364-0.564 0-1.154-0.099-1.847-0.322s-1.334-0.546-1.873-0.918l-0.128-0.099v3.15l0.077 0.025c0.487 0.223 1.077 0.372 1.795 0.546 0.719 0.124 1.359 0.223 1.924 0.223 1.719 0 3.129-0.372 4.129-1.191 1.025-0.794 1.564-1.811 1.564-3.126 0-0.918-0.257-1.736-0.821-2.357-0.743-0.595-1.667-1.215-3.001-1.712zM130.006 11.51c-2.334 0-4.207 0.67-5.514 1.985s-1.975 3.126-1.975 5.408c0 2.133 0.667 3.87 1.95 5.135 1.282 1.24 3.026 1.885 5.206 1.885 2.283 0 4.104-0.67 5.412-2.009 1.334-1.34 1.975-3.126 1.975-5.333 0-2.183-0.616-3.919-1.873-5.184-1.205-1.265-2.975-1.885-5.18-1.885zM132.647 22.077c-0.615 0.769-1.59 1.141-2.796 1.141-1.231 0-2.18-0.372-2.872-1.191-0.693-0.769-1.026-1.885-1.026-3.299 0-1.464 0.359-2.58 1.026-3.374 0.692-0.794 1.641-1.191 2.847-1.191 1.154 0 2.103 0.372 2.77 1.141s1.025 1.885 1.025 3.349c0 1.488-0.333 2.654-0.975 3.423zM154.884 14.462v-2.654h-3.36v-4.068l-0.103 0.025-3.257 0.943v3.101h-5.027v-1.736c0-0.794 0.206-1.414 0.564-1.811s0.898-0.595 1.564-0.595c0.462 0 0.949 0.099 1.488 0.322l0.128 0.074v-2.803l-0.077-0.025c-0.461-0.149-1.077-0.248-1.872-0.248-1 0-1.872 0.223-2.668 0.595-0.795 0.422-1.385 0.992-1.82 1.761-0.436 0.744-0.667 1.588-0.667 2.555v1.91h-2.334v2.629h2.334v11.113h3.359v-11.088h5.027v7.070c0 2.902 1.411 4.366 4.232 4.366 0.462 0 0.949-0.074 1.411-0.149 0.487-0.099 0.846-0.223 1.052-0.322l0.025-0.025v-2.654l-0.129 0.099c-0.205 0.124-0.385 0.223-0.692 0.298-0.256 0.074-0.487 0.099-0.667 0.099-0.666 0-1.128-0.149-1.462-0.521-0.308-0.347-0.461-0.918-0.461-1.761v-6.499h3.411z"></path>
<path fill="#f25022" style="fill: var(--color9, #f25022)" d="M0 0h15.722v15.206h-15.722v-15.206z"></path>
<path fill="#7fba00" style="fill: var(--color10, #7fba00)" d="M17.363 0h15.722v15.206h-15.722v-15.206z"></path>
<path fill="#00a4ef" style="fill: var(--color11, #00a4ef)" d="M0 16.794h15.722v15.206h-15.722v-15.206z"></path>
<path fill="#ffb900" style="fill: var(--color12, #ffb900)" d="M17.363 16.794h15.722v15.206h-15.722v-15.206z"></path>
</symbol>
  </defs>
</svg>